<?xml version="1.0" encoding="UTF-8" standalone="no"?>
<!DOCTYPE score-partwise PUBLIC "-//Recordare//DTD MusicXML 3.0 Partwise//EN" "partwise.dtd"[]>
<score-partwise version="3.0">
  <part-list>
    <score-part id="P1">
      <part-name>Music</part-name>
    </score-part>
  </part-list>
  <part id="P1">
    <measure number="1">
      <attributes>
        <divisions>1</divisions>
        <key>
          <fifths>0</fifths>
        </key>
        <time>
          <beats>4</beats>
          <beat-type>4</beat-type>
        </time>
        <clef>
          <sign>G</sign>
          <line>2</line>
        </clef>
      </attributes>
      <note>
        <pitch>
          <step>E</step>
          <octave>7</octave>
        </pitch>
        <duration>2</duration>
        <type>half</type>
      </note>
      <note>
        <pitch>
          <step>E</step>
          <octave>6</octave>
        </pitch>
        <duration>5</duration>
        <type>whole</type>
      </note>
    </measure>
    <measure number="2">
      <note>
        <pitch>
          <step>D</step>
          <octave>7</octave>
          <alter>1</alter>
        </pitch>
        <duration>2</duration>
        <type>half</type>
      </note>
    </measure>
    <measure number="3">
      <note>
        <pitch>
          <step>D</step>
          <octave>6</octave>
          <alter>1</alter>
        </pitch>
        <duration>5</duration>
        <type>whole</type>
      </note>
    </measure>
    <measure number="4">
      <note>
        <pitch>
          <step>E</step>
          <octave>7</octave>
        </pitch>
        <duration>2</duration>
        <type>half</type>
      </note>
    </measure>
    <measure number="5">
      <note>
        <pitch>
          <step>E</step>
          <octave>6</octave>
        </pitch>
        <duration>5</duration>
        <type>whole</type>
      </note>
    </measure>
    <measure number="6">
      <note>
        <pitch>
          <step>D</step>
          <octave>7</octave>
          <alter>1</alter>
        </pitch>
        <duration>2</duration>
        <type>half</type>
      </note>
    </measure>
    <measure number="7">
      <note>
        <pitch>
          <step>D</step>
          <octave>6</octave>
          <alter>1</alter>
        </pitch>
        <duration>5</duration>
        <type>whole</type>
      </note>
    </measure>
    <measure number="8">
      <note>
        <pitch>
          <step>E</step>
          <octave>7</octave>
        </pitch>
        <duration>2</duration>
        <type>half</type>
      </note>
    </measure>
    <measure number="9">
      <note>
        <pitch>
          <step>E</step>
          <octave>6</octave>
        </pitch>
        <duration>4</duration>
        <type>quarter</type>
      </note>
    </measure>
    <measure number="10">
      <note>
        <pitch>
          <step>B</step>
          <octave>5</octave>
        </pitch>
        <duration>7</duration>
        <type>whole</type>
      </note>
    </measure>
    <measure number="11">
      <note>
        <pitch>
          <step>D</step>
          <octave>7</octave>
        </pitch>
        <duration>6</duration>
        <type>whole</type>
      </note>
    </measure>
    <measure number="12">
      <note>
        <pitch>
          <step>D</step>
          <octave>6</octave>
        </pitch>
        <duration>7</duration>
        <type>whole</type>
      </note>
    </measure>
    <measure number="13">
      <note>
        <pitch>
          <step>C</step>
          <octave>6</octave>
        </pitch>
        <duration>6</duration>
        <type>whole</type>
      </note>
    </measure>
    <measure number="14">
      <note>
        <pitch>
          <step>A</step>
          <octave>3</octave>
        </pitch>
        <duration>1</duration>
        <type>quarter</type>
      </note>
    </measure>
    <measure number="15">
      <note>
        <pitch>
          <step>A</step>
          <octave>4</octave>
        </pitch>
        <duration>11</duration>
        <type>whole</type>
      </note>
    </measure>
    <measure number="16">
      <note>
        <pitch>
          <step>A</step>
          <octave>5</octave>
        </pitch>
        <duration>11</duration>
        <type>whole</type>
      </note>
    </measure>
    <measure number="17">
      <note>
        <pitch>
          <step>A</step>
          <octave>3</octave>
        </pitch>
        <duration>4</duration>
        <type>quarter</type>
      </note>
    </measure>
    <measure number="18">
      <note>
        <pitch>
          <step>F</step>
          <octave>4</octave>
        </pitch>
        <duration>1</duration>
        <type>quarter</type>
      </note>
    </measure>
    <measure number="19">
      <note>
        <pitch>
          <step>D</step>
          <octave>4</octave>
          <alter>1</alter>
        </pitch>
        <duration>24</duration>
        <type>whole</type>
      </note>
    </measure>
    <measure number="20">
      <note>
        <pitch>
          <step>A</step>
          <octave>5</octave>
        </pitch>
        <duration>9</duration>
        <type>whole</type>
      </note>
    </measure>
    <measure number="21">
      <note>
        <pitch>
          <step>A</step>
          <octave>4</octave>
        </pitch>
        <duration>12</duration>
        <type>whole</type>
      </note>
    </measure>
    <measure number="22">
      <note>
        <pitch>
          <step>C</step>
          <octave>5</octave>
          <alter>1</alter>
        </pitch>
        <duration>1</duration>
        <type>quarter</type>
      </note>
    </measure>
    <measure number="23">
      <note>
        <pitch>
          <step>C</step>
          <octave>5</octave>
          <alter>1</alter>
        </pitch>
        <duration>1</duration>
        <type>quarter</type>
      </note>
    </measure>
    <measure number="24">
      <note>
        <pitch>
          <step>G</step>
          <octave>6</octave>
        </pitch>
        <duration>1</duration>
        <type>quarter</type>
      </note>
    </measure>
    <measure number="25">
      <note>
        <pitch>
          <step>C</step>
          <octave>5</octave>
        </pitch>
        <duration>8</duration>
        <type>whole</type>
      </note>
    </measure>
    <measure number="26">
      <note>
        <pitch>
          <step>C</step>
          <octave>6</octave>
        </pitch>
        <duration>9</duration>
        <type>whole</type>
      </note>
    </measure>
    <measure number="27">
      <note>
        <pitch>
          <step>D</step>
          <octave>5</octave>
          <alter>1</alter>
        </pitch>
        <duration>1</duration>
        <type>quarter</type>
      </note>
    </measure>
    <measure number="28">
      <note>
        <pitch>
          <step>E</step>
          <octave>6</octave>
        </pitch>
        <duration>6</duration>
        <type>whole</type>
      </note>
    </measure>
    <measure number="29">
      <note>
        <pitch>
          <step>D</step>
          <octave>5</octave>
          <alter>1</alter>
        </pitch>
        <duration>3</duration>
        <type>half</type>
      </note>
    </measure>
    <measure number="30">
      <note>
        <pitch>
          <step>E</step>
          <octave>5</octave>
        </pitch>
        <duration>11</duration>
        <type>whole</type>
      </note>
    </measure>
    <measure number="31">
      <note>
        <pitch>
          <step>A</step>
          <octave>5</octave>
        </pitch>
        <duration>9</duration>
        <type>whole</type>
      </note>
    </measure>
    <measure number="32">
      <note>
        <pitch>
          <step>G</step>
          <octave>3</octave>
        </pitch>
        <duration>1</duration>
        <type>quarter</type>
      </note>
    </measure>
    <measure number="33">
      <note>
        <pitch>
          <step>B</step>
          <octave>5</octave>
        </pitch>
        <duration>3</duration>
        <type>half</type>
      </note>
    </measure>
    <measure number="34">
      <note>
        <pitch>
          <step>D</step>
          <octave>3</octave>
          <alter>1</alter>
        </pitch>
        <duration>6</duration>
        <type>whole</type>
      </note>
    </measure>
    <measure number="35">
      <note>
        <pitch>
          <step>D</step>
          <octave>4</octave>
          <alter>1</alter>
        </pitch>
        <duration>14</duration>
        <type>whole</type>
      </note>
    </measure>
    <measure number="36">
      <note>
        <pitch>
          <step>D</step>
          <octave>3</octave>
          <alter>1</alter>
        </pitch>
        <duration>8</duration>
        <type>whole</type>
      </note>
    </measure>
    <measure number="37">
      <note>
        <pitch>
          <step>F</step>
          <octave>4</octave>
        </pitch>
        <duration>1</duration>
        <type>quarter</type>
      </note>
    </measure>
    <measure number="38">
      <note>
        <pitch>
          <step>D</step>
          <octave>4</octave>
          <alter>1</alter>
        </pitch>
        <duration>24</duration>
        <type>whole</type>
      </note>
    </measure>
    <measure number="39">
      <note>
        <pitch>
          <step>G</step>
          <octave>4</octave>
          <alter>1</alter>
        </pitch>
        <duration>20</duration>
        <type>whole</type>
      </note>
    </measure>
    <measure number="40">
      <note>
        <pitch>
          <step>D</step>
          <octave>5</octave>
          <alter>1</alter>
        </pitch>
        <duration>2</duration>
        <type>half</type>
      </note>
    </measure>
    <measure number="41">
      <note>
        <pitch>
          <step>E</step>
          <octave>6</octave>
        </pitch>
        <duration>7</duration>
        <type>whole</type>
      </note>
    </measure>
    <measure number="42">
      <note>
        <pitch>
          <step>D</step>
          <octave>5</octave>
          <alter>1</alter>
        </pitch>
        <duration>3</duration>
        <type>half</type>
      </note>
    </measure>
    <measure number="43">
      <note>
        <pitch>
          <step>E</step>
          <octave>5</octave>
        </pitch>
        <duration>10</duration>
        <type>whole</type>
      </note>
    </measure>
    <measure number="44">
      <note>
        <pitch>
          <step>G</step>
          <octave>5</octave>
          <alter>1</alter>
        </pitch>
        <duration>14</duration>
        <type>whole</type>
      </note>
    </measure>
    <measure number="45">
      <note>
        <pitch>
          <step>B</step>
          <octave>5</octave>
        </pitch>
        <duration>5</duration>
        <type>whole</type>
      </note>
    </measure>
    <measure number="46">
      <note>
        <pitch>
          <step>C</step>
          <octave>4</octave>
        </pitch>
        <duration>1</duration>
        <type>quarter</type>
      </note>
    </measure>
    <measure number="47">
      <note>
        <pitch>
          <step>A</step>
          <octave>3</octave>
        </pitch>
        <duration>2</duration>
        <type>half</type>
      </note>
    </measure>
    <measure number="48">
      <note>
        <pitch>
          <step>C</step>
          <octave>6</octave>
        </pitch>
        <duration>5</duration>
        <type>whole</type>
      </note>
    </measure>
    <measure number="49">
      <note>
        <pitch>
          <step>A</step>
          <octave>3</octave>
        </pitch>
        <duration>1</duration>
        <type>quarter</type>
      </note>
    </measure>
    <measure number="50">
      <note>
        <pitch>
          <step>A</step>
          <octave>3</octave>
        </pitch>
        <duration>5</duration>
        <type>whole</type>
      </note>
    </measure>
    <measure number="51">
      <note>
        <pitch>
          <step>A</step>
          <octave>4</octave>
        </pitch>
        <duration>12</duration>
        <type>whole</type>
      </note>
    </measure>
    <measure number="52">
      <note>
        <pitch>
          <step>F</step>
          <octave>4</octave>
        </pitch>
        <duration>1</duration>
        <type>quarter</type>
      </note>
    </measure>
    <measure number="53">
      <note>
        <pitch>
          <step>D</step>
          <octave>4</octave>
          <alter>1</alter>
        </pitch>
        <duration>24</duration>
        <type>whole</type>
      </note>
    </measure>
    <measure number="54">
      <note>
        <pitch>
          <step>E</step>
          <octave>6</octave>
        </pitch>
        <duration>1</duration>
        <type>quarter</type>
      </note>
    </measure>
    <measure number="55">
      <note>
        <pitch>
          <step>A</step>
          <octave>6</octave>
        </pitch>
        <duration>1</duration>
        <type>quarter</type>
      </note>
    </measure>
    <measure number="56">
      <note>
        <pitch>
          <step>A</step>
          <octave>5</octave>
        </pitch>
        <duration>7</duration>
        <type>whole</type>
      </note>
    </measure>
    <measure number="57">
      <note>
        <pitch>
          <step>A</step>
          <octave>4</octave>
        </pitch>
        <duration>14</duration>
        <type>whole</type>
      </note>
    </measure>
    <measure number="58">
      <note>
        <pitch>
          <step>D</step>
          <octave>5</octave>
          <alter>1</alter>
        </pitch>
        <duration>2</duration>
        <type>half</type>
      </note>
    </measure>
    <measure number="59">
      <note>
        <pitch>
          <step>E</step>
          <octave>6</octave>
        </pitch>
        <duration>6</duration>
        <type>whole</type>
      </note>
    </measure>
    <measure number="60">
      <note>
        <pitch>
          <step>D</step>
          <octave>5</octave>
          <alter>1</alter>
        </pitch>
        <duration>2</duration>
        <type>half</type>
      </note>
    </measure>
    <measure number="61">
      <note>
        <pitch>
          <step>E</step>
          <octave>5</octave>
        </pitch>
        <duration>10</duration>
        <type>whole</type>
      </note>
    </measure>
    <measure number="62">
      <note>
        <pitch>
          <step>E</step>
          <octave>7</octave>
        </pitch>
        <duration>1</duration>
        <type>quarter</type>
      </note>
    </measure>
    <measure number="63">
      <note>
        <pitch>
          <step>E</step>
          <octave>6</octave>
        </pitch>
        <duration>4</duration>
        <type>quarter</type>
      </note>
    </measure>
    <measure number="64">
      <note>
        <pitch>
          <step>D</step>
          <octave>7</octave>
          <alter>1</alter>
        </pitch>
        <duration>1</duration>
        <type>quarter</type>
      </note>
    </measure>
    <measure number="65">
      <note>
        <pitch>
          <step>D</step>
          <octave>6</octave>
          <alter>1</alter>
        </pitch>
        <duration>4</duration>
        <type>quarter</type>
      </note>
    </measure>
    <measure number="66">
      <note>
        <pitch>
          <step>E</step>
          <octave>7</octave>
        </pitch>
        <duration>2</duration>
        <type>half</type>
      </note>
    </measure>
    <measure number="67">
      <note>
        <pitch>
          <step>E</step>
          <octave>6</octave>
        </pitch>
        <duration>5</duration>
        <type>whole</type>
      </note>
    </measure>
    <measure number="68">
      <note>
        <pitch>
          <step>D</step>
          <octave>7</octave>
          <alter>1</alter>
        </pitch>
        <duration>1</duration>
        <type>quarter</type>
      </note>
    </measure>
    <measure number="69">
      <note>
        <pitch>
          <step>D</step>
          <octave>6</octave>
          <alter>1</alter>
        </pitch>
        <duration>5</duration>
        <type>whole</type>
      </note>
    </measure>
    <measure number="70">
      <note>
        <pitch>
          <step>E</step>
          <octave>7</octave>
        </pitch>
        <duration>1</duration>
        <type>quarter</type>
      </note>
    </measure>
    <measure number="71">
      <note>
        <pitch>
          <step>E</step>
          <octave>6</octave>
        </pitch>
        <duration>5</duration>
        <type>whole</type>
      </note>
    </measure>
    <measure number="72">
      <note>
        <pitch>
          <step>B</step>
          <octave>5</octave>
        </pitch>
        <duration>6</duration>
        <type>whole</type>
      </note>
    </measure>
    <measure number="73">
      <note>
        <pitch>
          <step>D</step>
          <octave>7</octave>
        </pitch>
        <duration>5</duration>
        <type>whole</type>
      </note>
    </measure>
    <measure number="74">
      <note>
        <pitch>
          <step>D</step>
          <octave>6</octave>
        </pitch>
        <duration>6</duration>
        <type>whole</type>
      </note>
    </measure>
    <measure number="75">
      <note>
        <pitch>
          <step>C</step>
          <octave>6</octave>
        </pitch>
        <duration>5</duration>
        <type>whole</type>
      </note>
    </measure>
    <measure number="76">
      <note>
        <pitch>
          <step>C</step>
          <octave>4</octave>
        </pitch>
        <duration>1</duration>
        <type>quarter</type>
      </note>
    </measure>
    <measure number="77">
      <note>
        <pitch>
          <step>G</step>
          <octave>4</octave>
          <alter>1</alter>
        </pitch>
        <duration>1</duration>
        <type>quarter</type>
      </note>
    </measure>
    <measure number="78">
      <note>
        <pitch>
          <step>A</step>
          <octave>3</octave>
        </pitch>
        <duration>2</duration>
        <type>half</type>
      </note>
    </measure>
    <measure number="79">
      <note>
        <pitch>
          <step>A</step>
          <octave>3</octave>
        </pitch>
        <duration>1</duration>
        <type>quarter</type>
      </note>
    </measure>
    <measure number="80">
      <note>
        <pitch>
          <step>A</step>
          <octave>3</octave>
        </pitch>
        <duration>1</duration>
        <type>quarter</type>
      </note>
    </measure>
    <measure number="81">
      <note>
        <pitch>
          <step>A</step>
          <octave>5</octave>
        </pitch>
        <duration>11</duration>
        <type>whole</type>
      </note>
    </measure>
    <measure number="82">
      <note>
        <pitch>
          <step>A</step>
          <octave>3</octave>
        </pitch>
        <duration>1</duration>
        <type>quarter</type>
      </note>
    </measure>
    <measure number="83">
      <note>
        <pitch>
          <step>A</step>
          <octave>4</octave>
        </pitch>
        <duration>12</duration>
        <type>whole</type>
      </note>
    </measure>
    <measure number="84">
      <note>
        <pitch>
          <step>D</step>
          <octave>4</octave>
          <alter>1</alter>
        </pitch>
        <duration>24</duration>
        <type>whole</type>
      </note>
    </measure>
    <measure number="85">
      <note>
        <pitch>
          <step>A</step>
          <octave>5</octave>
        </pitch>
        <duration>10</duration>
        <type>whole</type>
      </note>
    </measure>
    <measure number="86">
      <note>
        <pitch>
          <step>A</step>
          <octave>4</octave>
        </pitch>
        <duration>13</duration>
        <type>whole</type>
      </note>
    </measure>
    <measure number="87">
      <note>
        <pitch>
          <step>G</step>
          <octave>6</octave>
        </pitch>
        <duration>1</duration>
        <type>quarter</type>
      </note>
    </measure>
    <measure number="88">
      <note>
        <pitch>
          <step>C</step>
          <octave>5</octave>
        </pitch>
        <duration>8</duration>
        <type>whole</type>
      </note>
    </measure>
    <measure number="89">
      <note>
        <pitch>
          <step>C</step>
          <octave>6</octave>
        </pitch>
        <duration>9</duration>
        <type>whole</type>
      </note>
    </measure>
    <measure number="90">
      <note>
        <pitch>
          <step>C</step>
          <octave>5</octave>
        </pitch>
        <duration>1</duration>
        <type>quarter</type>
      </note>
    </measure>
    <measure number="91">
      <note>
        <pitch>
          <step>D</step>
          <octave>5</octave>
          <alter>1</alter>
        </pitch>
        <duration>1</duration>
        <type>quarter</type>
      </note>
    </measure>
    <measure number="92">
      <note>
        <pitch>
          <step>E</step>
          <octave>6</octave>
        </pitch>
        <duration>7</duration>
        <type>whole</type>
      </note>
    </measure>
    <measure number="93">
      <note>
        <pitch>
          <step>D</step>
          <octave>5</octave>
          <alter>1</alter>
        </pitch>
        <duration>3</duration>
        <type>half</type>
      </note>
    </measure>
    <measure number="94">
      <note>
        <pitch>
          <step>E</step>
          <octave>5</octave>
        </pitch>
        <duration>10</duration>
        <type>whole</type>
      </note>
    </measure>
    <measure number="95">
      <note>
        <pitch>
          <step>A</step>
          <octave>5</octave>
        </pitch>
        <duration>10</duration>
        <type>whole</type>
      </note>
    </measure>
    <measure number="96">
      <note>
        <pitch>
          <step>B</step>
          <octave>5</octave>
        </pitch>
        <duration>4</duration>
        <type>quarter</type>
      </note>
    </measure>
    <measure number="97">
      <note>
        <pitch>
          <step>D</step>
          <octave>3</octave>
          <alter>1</alter>
        </pitch>
        <duration>7</duration>
        <type>whole</type>
      </note>
    </measure>
    <measure number="98">
      <note>
        <pitch>
          <step>D</step>
          <octave>3</octave>
          <alter>1</alter>
        </pitch>
        <duration>6</duration>
        <type>whole</type>
      </note>
    </measure>
    <measure number="99">
      <note>
        <pitch>
          <step>D</step>
          <octave>4</octave>
          <alter>1</alter>
        </pitch>
        <duration>14</duration>
        <type>whole</type>
      </note>
    </measure>
    <measure number="100">
      <note>
        <pitch>
          <step>D</step>
          <octave>4</octave>
          <alter>1</alter>
        </pitch>
        <duration>23</duration>
        <type>whole</type>
      </note>
    </measure>
    <measure number="101">
      <note>
        <pitch>
          <step>G</step>
          <octave>4</octave>
          <alter>1</alter>
        </pitch>
        <duration>18</duration>
        <type>whole</type>
      </note>
    </measure>
    <measure number="102">
      <note>
        <pitch>
          <step>G</step>
          <octave>4</octave>
          <alter>1</alter>
        </pitch>
        <duration>1</duration>
        <type>quarter</type>
      </note>
    </measure>
    <measure number="103">
      <note>
        <pitch>
          <step>D</step>
          <octave>5</octave>
          <alter>1</alter>
        </pitch>
        <duration>2</duration>
        <type>half</type>
      </note>
    </measure>
    <measure number="104">
      <note>
        <pitch>
          <step>E</step>
          <octave>6</octave>
        </pitch>
        <duration>6</duration>
        <type>whole</type>
      </note>
    </measure>
    <measure number="105">
      <note>
        <pitch>
          <step>D</step>
          <octave>5</octave>
          <alter>1</alter>
        </pitch>
        <duration>2</duration>
        <type>half</type>
      </note>
    </measure>
    <measure number="106">
      <note>
        <pitch>
          <step>E</step>
          <octave>5</octave>
        </pitch>
        <duration>10</duration>
        <type>whole</type>
      </note>
    </measure>
    <measure number="107">
      <note>
        <pitch>
          <step>C</step>
          <octave>6</octave>
        </pitch>
        <duration>7</duration>
        <type>whole</type>
      </note>
    </measure>
    <measure number="108">
      <note>
        <pitch>
          <step>B</step>
          <octave>5</octave>
        </pitch>
        <duration>6</duration>
        <type>whole</type>
      </note>
    </measure>
    <measure number="109">
      <note>
        <pitch>
          <step>A</step>
          <octave>3</octave>
        </pitch>
        <duration>2</duration>
        <type>half</type>
      </note>
    </measure>
    <measure number="110">
      <note>
        <pitch>
          <step>A</step>
          <octave>3</octave>
        </pitch>
        <duration>1</duration>
        <type>quarter</type>
      </note>
    </measure>
    <measure number="111">
      <note>
        <pitch>
          <step>A</step>
          <octave>4</octave>
        </pitch>
        <duration>11</duration>
        <type>whole</type>
      </note>
    </measure>
    <measure number="112">
      <note>
        <pitch>
          <step>A</step>
          <octave>5</octave>
        </pitch>
        <duration>11</duration>
        <type>whole</type>
      </note>
    </measure>
    <measure number="113">
      <note>
        <pitch>
          <step>A</step>
          <octave>3</octave>
        </pitch>
        <duration>3</duration>
        <type>half</type>
      </note>
    </measure>
    <measure number="114">
      <note>
        <pitch>
          <step>D</step>
          <octave>4</octave>
          <alter>1</alter>
        </pitch>
        <duration>24</duration>
        <type>whole</type>
      </note>
    </measure>
    <measure number="115">
      <note>
        <pitch>
          <step>E</step>
          <octave>6</octave>
        </pitch>
        <duration>1</duration>
        <type>quarter</type>
      </note>
    </measure>
    <measure number="116">
      <note>
        <pitch>
          <step>A</step>
          <octave>5</octave>
        </pitch>
        <duration>5</duration>
        <type>whole</type>
      </note>
    </measure>
    <measure number="117">
      <note>
        <pitch>
          <step>A</step>
          <octave>4</octave>
        </pitch>
        <duration>18</duration>
        <type>whole</type>
      </note>
    </measure>
    <measure number="118">
      <note>
        <pitch>
          <step>D</step>
          <octave>6</octave>
          <alter>1</alter>
        </pitch>
        <duration>1</duration>
        <type>quarter</type>
      </note>
    </measure>
    <measure number="119">
      <note>
        <pitch>
          <step>E</step>
          <octave>7</octave>
        </pitch>
        <duration>2</duration>
        <type>half</type>
      </note>
    </measure>
    <measure number="120">
      <note>
        <pitch>
          <step>E</step>
          <octave>6</octave>
        </pitch>
        <duration>5</duration>
        <type>whole</type>
      </note>
    </measure>
    <measure number="121">
      <note>
        <pitch>
          <step>D</step>
          <octave>7</octave>
          <alter>1</alter>
        </pitch>
        <duration>1</duration>
        <type>quarter</type>
      </note>
    </measure>
    <measure number="122">
      <note>
        <pitch>
          <step>D</step>
          <octave>6</octave>
          <alter>1</alter>
        </pitch>
        <duration>5</duration>
        <type>whole</type>
      </note>
    </measure>
    <measure number="123">
      <note>
        <pitch>
          <step>E</step>
          <octave>7</octave>
        </pitch>
        <duration>2</duration>
        <type>half</type>
      </note>
    </measure>
    <measure number="124">
      <note>
        <pitch>
          <step>E</step>
          <octave>6</octave>
        </pitch>
        <duration>5</duration>
        <type>whole</type>
      </note>
    </measure>
    <measure number="125">
      <note>
        <pitch>
          <step>D</step>
          <octave>7</octave>
          <alter>1</alter>
        </pitch>
        <duration>1</duration>
        <type>quarter</type>
      </note>
    </measure>
    <measure number="126">
      <note>
        <pitch>
          <step>D</step>
          <octave>6</octave>
          <alter>1</alter>
        </pitch>
        <duration>4</duration>
        <type>quarter</type>
      </note>
    </measure>
    <measure number="127">
      <note>
        <pitch>
          <step>E</step>
          <octave>7</octave>
        </pitch>
        <duration>2</duration>
        <type>half</type>
      </note>
    </measure>
    <measure number="128">
      <note>
        <pitch>
          <step>E</step>
          <octave>6</octave>
        </pitch>
        <duration>4</duration>
        <type>quarter</type>
      </note>
    </measure>
    <measure number="129">
      <note>
        <pitch>
          <step>B</step>
          <octave>5</octave>
        </pitch>
        <duration>5</duration>
        <type>whole</type>
      </note>
    </measure>
    <measure number="130">
      <note>
        <pitch>
          <step>D</step>
          <octave>6</octave>
          <alter>1</alter>
        </pitch>
        <duration>1</duration>
        <type>quarter</type>
      </note>
    </measure>
    <measure number="131">
      <note>
        <pitch>
          <step>D</step>
          <octave>7</octave>
        </pitch>
        <duration>6</duration>
        <type>whole</type>
      </note>
    </measure>
    <measure number="132">
      <note>
        <pitch>
          <step>D</step>
          <octave>6</octave>
        </pitch>
        <duration>7</duration>
        <type>whole</type>
      </note>
    </measure>
    <measure number="133">
      <note>
        <pitch>
          <step>C</step>
          <octave>6</octave>
        </pitch>
        <duration>6</duration>
        <type>whole</type>
      </note>
    </measure>
    <measure number="134">
      <note>
        <pitch>
          <step>A</step>
          <octave>3</octave>
        </pitch>
        <duration>2</duration>
        <type>half</type>
      </note>
    </measure>
    <measure number="135">
      <note>
        <pitch>
          <step>A</step>
          <octave>3</octave>
        </pitch>
        <duration>2</duration>
        <type>half</type>
      </note>
    </measure>
    <measure number="136">
      <note>
        <pitch>
          <step>A</step>
          <octave>4</octave>
        </pitch>
        <duration>11</duration>
        <type>whole</type>
      </note>
    </measure>
    <measure number="137">
      <note>
        <pitch>
          <step>A</step>
          <octave>5</octave>
        </pitch>
        <duration>11</duration>
        <type>whole</type>
      </note>
    </measure>
    <measure number="138">
      <note>
        <pitch>
          <step>A</step>
          <octave>3</octave>
        </pitch>
        <duration>3</duration>
        <type>half</type>
      </note>
    </measure>
    <measure number="139">
      <note>
        <pitch>
          <step>F</step>
          <octave>4</octave>
        </pitch>
        <duration>1</duration>
        <type>quarter</type>
      </note>
    </measure>
    <measure number="140">
      <note>
        <pitch>
          <step>D</step>
          <octave>4</octave>
          <alter>1</alter>
        </pitch>
        <duration>25</duration>
        <type>whole</type>
      </note>
    </measure>
    <measure number="141">
      <note>
        <pitch>
          <step>E</step>
          <octave>6</octave>
        </pitch>
        <duration>1</duration>
        <type>quarter</type>
      </note>
    </measure>
    <measure number="142">
      <note>
        <pitch>
          <step>A</step>
          <octave>6</octave>
        </pitch>
        <duration>1</duration>
        <type>quarter</type>
      </note>
    </measure>
    <measure number="143">
      <note>
        <pitch>
          <step>A</step>
          <octave>5</octave>
        </pitch>
        <duration>6</duration>
        <type>whole</type>
      </note>
    </measure>
    <measure number="144">
      <note>
        <pitch>
          <step>A</step>
          <octave>4</octave>
        </pitch>
        <duration>15</duration>
        <type>whole</type>
      </note>
    </measure>
    <measure number="145">
      <note>
        <pitch>
          <step>G</step>
          <octave>6</octave>
        </pitch>
        <duration>1</duration>
        <type>quarter</type>
      </note>
    </measure>
    <measure number="146">
      <note>
        <pitch>
          <step>C</step>
          <octave>6</octave>
        </pitch>
        <duration>8</duration>
        <type>whole</type>
      </note>
    </measure>
    <measure number="147">
      <note>
        <pitch>
          <step>C</step>
          <octave>5</octave>
        </pitch>
        <duration>9</duration>
        <type>whole</type>
      </note>
    </measure>
    <measure number="148">
      <note>
        <pitch>
          <step>E</step>
          <octave>5</octave>
        </pitch>
        <duration>2</duration>
        <type>half</type>
      </note>
    </measure>
    <measure number="149">
      <note>
        <pitch>
          <step>E</step>
          <octave>6</octave>
        </pitch>
        <duration>2</duration>
        <type>half</type>
      </note>
    </measure>
    <measure number="150">
      <note>
        <pitch>
          <step>F</step>
          <octave>4</octave>
        </pitch>
        <duration>1</duration>
        <type>quarter</type>
      </note>
    </measure>
    <measure number="151">
      <note>
        <pitch>
          <step>D</step>
          <octave>5</octave>
          <alter>1</alter>
        </pitch>
        <duration>1</duration>
        <type>quarter</type>
      </note>
    </measure>
    <measure number="152">
      <note>
        <pitch>
          <step>D</step>
          <octave>4</octave>
          <alter>1</alter>
        </pitch>
        <duration>15</duration>
        <type>whole</type>
      </note>
    </measure>
    <measure number="153">
      <note>
        <pitch>
          <step>E</step>
          <octave>6</octave>
        </pitch>
        <duration>1</duration>
        <type>quarter</type>
      </note>
    </measure>
    <measure number="154">
      <note>
        <pitch>
          <step>A</step>
          <octave>6</octave>
        </pitch>
        <duration>2</duration>
        <type>half</type>
      </note>
    </measure>
    <measure number="155">
      <note>
        <pitch>
          <step>A</step>
          <octave>5</octave>
        </pitch>
        <duration>3</duration>
        <type>half</type>
      </note>
    </measure>
    <measure number="156">
      <note>
        <pitch>
          <step>A</step>
          <octave>5</octave>
        </pitch>
        <duration>1</duration>
        <type>quarter</type>
      </note>
    </measure>
    <measure number="157">
      <note>
        <pitch>
          <step>A</step>
          <octave>4</octave>
        </pitch>
        <duration>15</duration>
        <type>whole</type>
      </note>
    </measure>
    <measure number="158">
      <note>
        <pitch>
          <step>E</step>
          <octave>6</octave>
        </pitch>
        <duration>7</duration>
        <type>whole</type>
      </note>
    </measure>
    <measure number="159">
      <note>
        <pitch>
          <step>D</step>
          <octave>5</octave>
          <alter>1</alter>
        </pitch>
        <duration>3</duration>
        <type>half</type>
      </note>
    </measure>
    <measure number="160">
      <note>
        <pitch>
          <step>E</step>
          <octave>5</octave>
        </pitch>
        <duration>10</duration>
        <type>whole</type>
      </note>
    </measure>
    <measure number="161">
      <note>
        <pitch>
          <step>E</step>
          <octave>7</octave>
        </pitch>
        <duration>2</duration>
        <type>half</type>
      </note>
    </measure>
    <measure number="162">
      <note>
        <pitch>
          <step>E</step>
          <octave>6</octave>
        </pitch>
        <duration>4</duration>
        <type>quarter</type>
      </note>
    </measure>
    <measure number="163">
      <note>
        <pitch>
          <step>D</step>
          <octave>7</octave>
          <alter>1</alter>
        </pitch>
        <duration>2</duration>
        <type>half</type>
      </note>
    </measure>
    <measure number="164">
      <note>
        <pitch>
          <step>D</step>
          <octave>6</octave>
          <alter>1</alter>
        </pitch>
        <duration>5</duration>
        <type>whole</type>
      </note>
    </measure>
    <measure number="165">
      <note>
        <pitch>
          <step>E</step>
          <octave>7</octave>
        </pitch>
        <duration>2</duration>
        <type>half</type>
      </note>
    </measure>
    <measure number="166">
      <note>
        <pitch>
          <step>E</step>
          <octave>6</octave>
        </pitch>
        <duration>4</duration>
        <type>quarter</type>
      </note>
    </measure>
    <measure number="167">
      <note>
        <pitch>
          <step>D</step>
          <octave>7</octave>
          <alter>1</alter>
        </pitch>
        <duration>1</duration>
        <type>quarter</type>
      </note>
    </measure>
    <measure number="168">
      <note>
        <pitch>
          <step>D</step>
          <octave>6</octave>
          <alter>1</alter>
        </pitch>
        <duration>5</duration>
        <type>whole</type>
      </note>
    </measure>
    <measure number="169">
      <note>
        <pitch>
          <step>E</step>
          <octave>7</octave>
        </pitch>
        <duration>1</duration>
        <type>quarter</type>
      </note>
    </measure>
    <measure number="170">
      <note>
        <pitch>
          <step>E</step>
          <octave>6</octave>
        </pitch>
        <duration>4</duration>
        <type>quarter</type>
      </note>
    </measure>
    <measure number="171">
      <note>
        <pitch>
          <step>B</step>
          <octave>5</octave>
        </pitch>
        <duration>5</duration>
        <type>whole</type>
      </note>
    </measure>
    <measure number="172">
      <note>
        <pitch>
          <step>D</step>
          <octave>7</octave>
        </pitch>
        <duration>5</duration>
        <type>whole</type>
      </note>
    </measure>
    <measure number="173">
      <note>
        <pitch>
          <step>D</step>
          <octave>6</octave>
        </pitch>
        <duration>7</duration>
        <type>whole</type>
      </note>
    </measure>
    <measure number="174">
      <note>
        <pitch>
          <step>C</step>
          <octave>6</octave>
        </pitch>
        <duration>6</duration>
        <type>whole</type>
      </note>
    </measure>
    <measure number="175">
      <note>
        <pitch>
          <step>A</step>
          <octave>3</octave>
        </pitch>
        <duration>1</duration>
        <type>quarter</type>
      </note>
    </measure>
    <measure number="176">
      <note>
        <pitch>
          <step>A</step>
          <octave>3</octave>
        </pitch>
        <duration>2</duration>
        <type>half</type>
      </note>
    </measure>
    <measure number="177">
      <note>
        <pitch>
          <step>A</step>
          <octave>5</octave>
        </pitch>
        <duration>11</duration>
        <type>whole</type>
      </note>
    </measure>
    <measure number="178">
      <note>
        <pitch>
          <step>A</step>
          <octave>4</octave>
        </pitch>
        <duration>12</duration>
        <type>whole</type>
      </note>
    </measure>
    <measure number="179">
      <note>
        <pitch>
          <step>D</step>
          <octave>7</octave>
          <alter>1</alter>
        </pitch>
        <duration>1</duration>
        <type>quarter</type>
      </note>
    </measure>
    <measure number="180">
      <note>
        <pitch>
          <step>D</step>
          <octave>6</octave>
          <alter>1</alter>
        </pitch>
        <duration>4</duration>
        <type>quarter</type>
      </note>
    </measure>
    <measure number="181">
      <note>
        <pitch>
          <step>E</step>
          <octave>7</octave>
        </pitch>
        <duration>2</duration>
        <type>half</type>
      </note>
    </measure>
    <measure number="182">
      <note>
        <pitch>
          <step>E</step>
          <octave>6</octave>
        </pitch>
        <duration>5</duration>
        <type>whole</type>
      </note>
    </measure>
    <measure number="183">
      <note>
        <pitch>
          <step>D</step>
          <octave>7</octave>
          <alter>1</alter>
        </pitch>
        <duration>1</duration>
        <type>quarter</type>
      </note>
    </measure>
    <measure number="184">
      <note>
        <pitch>
          <step>D</step>
          <octave>6</octave>
          <alter>1</alter>
        </pitch>
        <duration>4</duration>
        <type>quarter</type>
      </note>
    </measure>
    <measure number="185">
      <note>
        <pitch>
          <step>E</step>
          <octave>7</octave>
        </pitch>
        <duration>2</duration>
        <type>half</type>
      </note>
    </measure>
    <measure number="186">
      <note>
        <pitch>
          <step>E</step>
          <octave>6</octave>
        </pitch>
        <duration>4</duration>
        <type>quarter</type>
      </note>
    </measure>
    <measure number="187">
      <note>
        <pitch>
          <step>D</step>
          <octave>7</octave>
          <alter>1</alter>
        </pitch>
        <duration>1</duration>
        <type>quarter</type>
      </note>
    </measure>
    <measure number="188">
      <note>
        <pitch>
          <step>D</step>
          <octave>6</octave>
          <alter>1</alter>
        </pitch>
        <duration>5</duration>
        <type>whole</type>
      </note>
    </measure>
    <measure number="189">
      <note>
        <pitch>
          <step>E</step>
          <octave>7</octave>
        </pitch>
        <duration>1</duration>
        <type>quarter</type>
      </note>
    </measure>
    <measure number="190">
      <note>
        <pitch>
          <step>E</step>
          <octave>6</octave>
        </pitch>
        <duration>5</duration>
        <type>whole</type>
      </note>
    </measure>
    <measure number="191">
      <note>
        <pitch>
          <step>D</step>
          <octave>7</octave>
          <alter>1</alter>
        </pitch>
        <duration>1</duration>
        <type>quarter</type>
      </note>
    </measure>
    <measure number="192">
      <note>
        <pitch>
          <step>D</step>
          <octave>6</octave>
          <alter>1</alter>
        </pitch>
        <duration>5</duration>
        <type>whole</type>
      </note>
    </measure>
    <measure number="193">
      <note>
        <pitch>
          <step>E</step>
          <octave>7</octave>
        </pitch>
        <duration>2</duration>
        <type>half</type>
      </note>
    </measure>
    <measure number="194">
      <note>
        <pitch>
          <step>E</step>
          <octave>6</octave>
        </pitch>
        <duration>5</duration>
        <type>whole</type>
      </note>
    </measure>
    <measure number="195">
      <note>
        <pitch>
          <step>D</step>
          <octave>7</octave>
          <alter>1</alter>
        </pitch>
        <duration>1</duration>
        <type>quarter</type>
      </note>
    </measure>
    <measure number="196">
      <note>
        <pitch>
          <step>D</step>
          <octave>6</octave>
          <alter>1</alter>
        </pitch>
        <duration>4</duration>
        <type>quarter</type>
      </note>
    </measure>
    <measure number="197">
      <note>
        <pitch>
          <step>E</step>
          <octave>7</octave>
        </pitch>
        <duration>2</duration>
        <type>half</type>
      </note>
    </measure>
    <measure number="198">
      <note>
        <pitch>
          <step>E</step>
          <octave>6</octave>
        </pitch>
        <duration>4</duration>
        <type>quarter</type>
      </note>
    </measure>
    <measure number="199">
      <note>
        <pitch>
          <step>G</step>
          <octave>4</octave>
          <alter>1</alter>
        </pitch>
        <duration>8</duration>
        <type>whole</type>
      </note>
    </measure>
    <measure number="200">
      <note>
        <pitch>
          <step>E</step>
          <octave>6</octave>
        </pitch>
        <duration>6</duration>
        <type>whole</type>
      </note>
    </measure>
    <measure number="201">
      <note>
        <pitch>
          <step>D</step>
          <octave>5</octave>
          <alter>1</alter>
        </pitch>
        <duration>4</duration>
        <type>quarter</type>
      </note>
    </measure>
    <measure number="202">
      <note>
        <pitch>
          <step>E</step>
          <octave>5</octave>
        </pitch>
        <duration>10</duration>
        <type>whole</type>
      </note>
    </measure>
    <measure number="203">
      <note>
        <pitch>
          <step>A</step>
          <octave>5</octave>
        </pitch>
        <duration>1</duration>
        <type>quarter</type>
      </note>
    </measure>
    <measure number="204">
      <note>
        <pitch>
          <step>G</step>
          <octave>5</octave>
          <alter>1</alter>
        </pitch>
        <duration>14</duration>
        <type>whole</type>
      </note>
    </measure>
    <measure number="205">
      <note>
        <pitch>
          <step>B</step>
          <octave>5</octave>
        </pitch>
        <duration>6</duration>
        <type>whole</type>
      </note>
    </measure>
    <measure number="206">
      <note>
        <pitch>
          <step>A</step>
          <octave>3</octave>
        </pitch>
        <duration>2</duration>
        <type>half</type>
      </note>
    </measure>
    <measure number="207">
      <note>
        <pitch>
          <step>C</step>
          <octave>6</octave>
        </pitch>
        <duration>5</duration>
        <type>whole</type>
      </note>
    </measure>
    <measure number="208">
      <note>
        <pitch>
          <step>A</step>
          <octave>3</octave>
        </pitch>
        <duration>6</duration>
        <type>whole</type>
      </note>
    </measure>
    <measure number="209">
      <note>
        <pitch>
          <step>A</step>
          <octave>4</octave>
        </pitch>
        <duration>11</duration>
        <type>whole</type>
      </note>
    </measure>
    <measure number="210">
      <note>
        <pitch>
          <step>F</step>
          <octave>4</octave>
        </pitch>
        <duration>1</duration>
        <type>quarter</type>
      </note>
    </measure>
    <measure number="211">
      <note>
        <pitch>
          <step>D</step>
          <octave>4</octave>
          <alter>1</alter>
        </pitch>
        <duration>25</duration>
        <type>whole</type>
      </note>
    </measure>
    <measure number="212">
      <note>
        <pitch>
          <step>E</step>
          <octave>6</octave>
        </pitch>
        <duration>1</duration>
        <type>quarter</type>
      </note>
    </measure>
    <measure number="213">
      <note>
        <pitch>
          <step>A</step>
          <octave>6</octave>
        </pitch>
        <duration>1</duration>
        <type>quarter</type>
      </note>
    </measure>
    <measure number="214">
      <note>
        <pitch>
          <step>A</step>
          <octave>5</octave>
        </pitch>
        <duration>6</duration>
        <type>whole</type>
      </note>
    </measure>
    <measure number="215">
      <note>
        <pitch>
          <step>A</step>
          <octave>4</octave>
        </pitch>
        <duration>15</duration>
        <type>whole</type>
      </note>
    </measure>
    <measure number="216">
      <note>
        <pitch>
          <step>D</step>
          <octave>5</octave>
          <alter>1</alter>
        </pitch>
        <duration>2</duration>
        <type>half</type>
      </note>
    </measure>
    <measure number="217">
      <note>
        <pitch>
          <step>E</step>
          <octave>6</octave>
        </pitch>
        <duration>7</duration>
        <type>whole</type>
      </note>
    </measure>
    <measure number="218">
      <note>
        <pitch>
          <step>E</step>
          <octave>5</octave>
        </pitch>
        <duration>10</duration>
        <type>whole</type>
      </note>
    </measure>
    <measure number="219">
      <note>
        <pitch>
          <step>E</step>
          <octave>7</octave>
        </pitch>
        <duration>2</duration>
        <type>half</type>
      </note>
    </measure>
    <measure number="220">
      <note>
        <pitch>
          <step>E</step>
          <octave>6</octave>
        </pitch>
        <duration>5</duration>
        <type>whole</type>
      </note>
    </measure>
    <measure number="221">
      <note>
        <pitch>
          <step>D</step>
          <octave>7</octave>
          <alter>1</alter>
        </pitch>
        <duration>2</duration>
        <type>half</type>
      </note>
    </measure>
    <measure number="222">
      <note>
        <pitch>
          <step>D</step>
          <octave>6</octave>
          <alter>1</alter>
        </pitch>
        <duration>5</duration>
        <type>whole</type>
      </note>
    </measure>
    <measure number="223">
      <note>
        <pitch>
          <step>E</step>
          <octave>7</octave>
        </pitch>
        <duration>2</duration>
        <type>half</type>
      </note>
    </measure>
    <measure number="224">
      <note>
        <pitch>
          <step>E</step>
          <octave>6</octave>
        </pitch>
        <duration>4</duration>
        <type>quarter</type>
      </note>
    </measure>
    <measure number="225">
      <note>
        <pitch>
          <step>D</step>
          <octave>7</octave>
          <alter>1</alter>
        </pitch>
        <duration>1</duration>
        <type>quarter</type>
      </note>
    </measure>
    <measure number="226">
      <note>
        <pitch>
          <step>D</step>
          <octave>6</octave>
          <alter>1</alter>
        </pitch>
        <duration>5</duration>
        <type>whole</type>
      </note>
    </measure>
    <measure number="227">
      <note>
        <pitch>
          <step>E</step>
          <octave>7</octave>
        </pitch>
        <duration>1</duration>
        <type>quarter</type>
      </note>
    </measure>
    <measure number="228">
      <note>
        <pitch>
          <step>E</step>
          <octave>6</octave>
        </pitch>
        <duration>4</duration>
        <type>quarter</type>
      </note>
    </measure>
    <measure number="229">
      <note>
        <pitch>
          <step>B</step>
          <octave>5</octave>
        </pitch>
        <duration>5</duration>
        <type>whole</type>
      </note>
    </measure>
    <measure number="230">
      <note>
        <pitch>
          <step>D</step>
          <octave>7</octave>
        </pitch>
        <duration>5</duration>
        <type>whole</type>
      </note>
    </measure>
    <measure number="231">
      <note>
        <pitch>
          <step>D</step>
          <octave>6</octave>
        </pitch>
        <duration>7</duration>
        <type>whole</type>
      </note>
    </measure>
    <measure number="232">
      <note>
        <pitch>
          <step>C</step>
          <octave>6</octave>
        </pitch>
        <duration>6</duration>
        <type>whole</type>
      </note>
    </measure>
    <measure number="233">
      <note>
        <pitch>
          <step>A</step>
          <octave>3</octave>
        </pitch>
        <duration>1</duration>
        <type>quarter</type>
      </note>
    </measure>
    <measure number="234">
      <note>
        <pitch>
          <step>A</step>
          <octave>3</octave>
        </pitch>
        <duration>1</duration>
        <type>quarter</type>
      </note>
    </measure>
    <measure number="235">
      <note>
        <pitch>
          <step>A</step>
          <octave>3</octave>
        </pitch>
        <duration>2</duration>
        <type>half</type>
      </note>
    </measure>
    <measure number="236">
      <note>
        <pitch>
          <step>A</step>
          <octave>3</octave>
        </pitch>
        <duration>1</duration>
        <type>quarter</type>
      </note>
    </measure>
    <measure number="237">
      <note>
        <pitch>
          <step>A</step>
          <octave>4</octave>
        </pitch>
        <duration>11</duration>
        <type>whole</type>
      </note>
    </measure>
    <measure number="238">
      <note>
        <pitch>
          <step>A</step>
          <octave>5</octave>
        </pitch>
        <duration>11</duration>
        <type>whole</type>
      </note>
    </measure>
    <measure number="239">
      <note>
        <pitch>
          <step>F</step>
          <octave>4</octave>
        </pitch>
        <duration>1</duration>
        <type>quarter</type>
      </note>
    </measure>
    <measure number="240">
      <note>
        <pitch>
          <step>D</step>
          <octave>4</octave>
          <alter>1</alter>
        </pitch>
        <duration>24</duration>
        <type>whole</type>
      </note>
    </measure>
    <measure number="241">
      <note>
        <pitch>
          <step>A</step>
          <octave>5</octave>
        </pitch>
        <duration>4</duration>
        <type>quarter</type>
      </note>
    </measure>
    <measure number="242">
      <note>
        <pitch>
          <step>A</step>
          <octave>5</octave>
        </pitch>
        <duration>1</duration>
        <type>quarter</type>
      </note>
    </measure>
    <measure number="243">
      <note>
        <pitch>
          <step>A</step>
          <octave>4</octave>
        </pitch>
        <duration>14</duration>
        <type>whole</type>
      </note>
    </measure>
    <measure number="244">
      <note>
        <pitch>
          <step>A</step>
          <octave>4</octave>
        </pitch>
        <duration>1</duration>
        <type>quarter</type>
      </note>
    </measure>
    <measure number="245">
      <note>
        <pitch>
          <step>G</step>
          <octave>6</octave>
        </pitch>
        <duration>1</duration>
        <type>quarter</type>
      </note>
    </measure>
    <measure number="246">
      <note>
        <pitch>
          <step>C</step>
          <octave>5</octave>
        </pitch>
        <duration>9</duration>
        <type>whole</type>
      </note>
    </measure>
    <measure number="247">
      <note>
        <pitch>
          <step>C</step>
          <octave>6</octave>
        </pitch>
        <duration>9</duration>
        <type>whole</type>
      </note>
    </measure>
    <measure number="248">
      <note>
        <pitch>
          <step>E</step>
          <octave>6</octave>
        </pitch>
        <duration>6</duration>
        <type>whole</type>
      </note>
    </measure>
    <measure number="249">
      <note>
        <pitch>
          <step>D</step>
          <octave>5</octave>
          <alter>1</alter>
        </pitch>
        <duration>3</duration>
        <type>half</type>
      </note>
    </measure>
    <measure number="250">
      <note>
        <pitch>
          <step>D</step>
          <octave>5</octave>
          <alter>1</alter>
        </pitch>
        <duration>2</duration>
        <type>half</type>
      </note>
    </measure>
    <measure number="251">
      <note>
        <pitch>
          <step>E</step>
          <octave>5</octave>
        </pitch>
        <duration>11</duration>
        <type>whole</type>
      </note>
    </measure>
    <measure number="252">
      <note>
        <pitch>
          <step>A</step>
          <octave>5</octave>
        </pitch>
        <duration>9</duration>
        <type>whole</type>
      </note>
    </measure>
    <measure number="253">
      <note>
        <pitch>
          <step>G</step>
          <octave>3</octave>
        </pitch>
        <duration>1</duration>
        <type>quarter</type>
      </note>
    </measure>
    <measure number="254">
      <note>
        <pitch>
          <step>B</step>
          <octave>5</octave>
        </pitch>
        <duration>5</duration>
        <type>whole</type>
      </note>
    </measure>
    <measure number="255">
      <note>
        <pitch>
          <step>D</step>
          <octave>3</octave>
          <alter>1</alter>
        </pitch>
        <duration>8</duration>
        <type>whole</type>
      </note>
    </measure>
    <measure number="256">
      <note>
        <pitch>
          <step>D</step>
          <octave>3</octave>
          <alter>1</alter>
        </pitch>
        <duration>6</duration>
        <type>whole</type>
      </note>
    </measure>
    <measure number="257">
      <note>
        <pitch>
          <step>D</step>
          <octave>4</octave>
          <alter>1</alter>
        </pitch>
        <duration>15</duration>
        <type>whole</type>
      </note>
    </measure>
    <measure number="258">
      <note>
        <pitch>
          <step>F</step>
          <octave>4</octave>
        </pitch>
        <duration>1</duration>
        <type>quarter</type>
      </note>
    </measure>
    <measure number="259">
      <note>
        <pitch>
          <step>D</step>
          <octave>4</octave>
          <alter>1</alter>
        </pitch>
        <duration>24</duration>
        <type>whole</type>
      </note>
    </measure>
    <measure number="260">
      <note>
        <pitch>
          <step>G</step>
          <octave>4</octave>
          <alter>1</alter>
        </pitch>
        <duration>20</duration>
        <type>whole</type>
      </note>
    </measure>
    <measure number="261">
      <note>
        <pitch>
          <step>D</step>
          <octave>5</octave>
          <alter>1</alter>
        </pitch>
        <duration>1</duration>
        <type>quarter</type>
      </note>
    </measure>
    <measure number="262">
      <note>
        <pitch>
          <step>E</step>
          <octave>6</octave>
        </pitch>
        <duration>7</duration>
        <type>whole</type>
      </note>
    </measure>
    <measure number="263">
      <note>
        <pitch>
          <step>D</step>
          <octave>5</octave>
          <alter>1</alter>
        </pitch>
        <duration>3</duration>
        <type>half</type>
      </note>
    </measure>
    <measure number="264">
      <note>
        <pitch>
          <step>E</step>
          <octave>5</octave>
        </pitch>
        <duration>10</duration>
        <type>whole</type>
      </note>
    </measure>
    <measure number="265">
      <note>
        <pitch>
          <step>C</step>
          <octave>6</octave>
        </pitch>
        <duration>6</duration>
        <type>whole</type>
      </note>
    </measure>
    <measure number="266">
      <note>
        <pitch>
          <step>B</step>
          <octave>5</octave>
        </pitch>
        <duration>5</duration>
        <type>whole</type>
      </note>
    </measure>
    <measure number="267">
      <note>
        <pitch>
          <step>A</step>
          <octave>4</octave>
        </pitch>
        <duration>1</duration>
        <type>quarter</type>
      </note>
    </measure>
    <measure number="268">
      <note>
        <pitch>
          <step>A</step>
          <octave>5</octave>
        </pitch>
        <duration>8</duration>
        <type>whole</type>
      </note>
    </measure>
  </part>
</score-partwise>